# xmcd CD database file
#
# Track frame offsets:
#	150
#	17480
#	33348
#	49276
#	64683
#	79182
#	94164
#	107547
#	134985
#	153176
#	168061
#	183848
#	197458
#	221742
#	237449
#	250806
#	265637
#	284493
#	298887
#	315977
#	331205
#	342308
#
# Disc length: 4735 seconds
#
# Revision: 0
# Processed by: cddbd v1.5PL3 Copyright (c) Steve Scherf et al.
# Submitted via: CDex 1.50Beta5
#
DISCID=3a127d16
DTITLE=Nino Violeiro - O homem e a natureza
DYEAR=2003
DGENRE=Country
TTITLE0=Santo Expedito
TTITLE1=Um amigo que você pode contar
TTITLE2=Oito segundos
TTITLE3=Como posso esquecer
TTITLE4=Difícil viver sem você
TTITLE5=Bailão apaixonado
TTITLE6=Foi, foi, foi
TTITLE7=O homem e a natureza
TTITLE8=Caminhos da roça
TTITLE9=O peixe e o pescador
TTITLE10=O andarilho
TTITLE11=O caipira assustado
TTITLE12=O rico e o pobre
TTITLE13=Chico Xavier
TTITLE14=Amargurado
TTITLE15=O fumo do vovô e o cachimbo da vovó
TTITLE16=Bares e amigos de Terra Roxa
TTITLE17=Pirangueiro do Rio pardo
TTITLE18=Cheiro de terra molhada
TTITLE19=Deus é grande
TTITLE20=Muro da vizinha
TTITLE21=Cowboy caminhoneiro
EXTD=YEAR: 2003
EXTT0=
EXTT1=
EXTT2=
EXTT3=
EXTT4=
EXTT5=
EXTT6=
EXTT7=
EXTT8=
EXTT9=
EXTT10=
EXTT11=
EXTT12=
EXTT13=
EXTT14=
EXTT15=
EXTT16=
EXTT17=
EXTT18=
EXTT19=
EXTT20=
EXTT21=
PLAYORDER=
